<svg xmlns="http://www.w3.org/2000/svg" viewBox="0 0 64 64" role="img" aria-labelledby="title">
  <title id="title">Noosphere globe</title>
  <defs>
    <linearGradient id="ocean" x1="10" y1="7" x2="55" y2="58" gradientUnits="userSpaceOnUse">
      <stop stop-color="#6FB8E8"/>
      <stop offset="1" stop-color="#2F6FAE"/>
    </linearGradient>
    <filter id="soft" x="-20%" y="-20%" width="140%" height="140%">
      <feDropShadow dx="0" dy="3" stdDeviation="3" flood-color="#245A8A" flood-opacity=".22"/>
    </filter>
  </defs>
  <circle cx="32" cy="32" r="27" fill="url(#ocean)" filter="url(#soft)"/>
  <path fill="#D7EBC6" d="M14.4 20.5c3.5-6 9.3-10.3 16.1-11.2l2.2 4.1-4.5 2.2-2.4 4.8-5.2 1.7-2.2 4.1-4.7-.8.7-4.9Zm20.8 7.1 5.5-4.2 6.4 1.3 3.7 4.6-1.7 4.4-5.5 1.1-2.6 5-4.6-1.1-2.9-5.8 1.7-5.3ZM20.6 36l5.8-1.4 5 3.6-.7 5.1-4.4 2.3-1.1 7.1A23.2 23.2 0 0 1 12 36.4l3.2 1.8 5.4-2.2Z"/>
  <path fill="none" stroke="#F4FAFF" stroke-linecap="round" stroke-width="1.6" opacity=".55" d="M9.2 32h45.6M32 5.2c8.2 7.1 12.4 16 12.4 26.8S40.2 51.7 32 58.8M32 5.2C23.8 12.3 19.6 21.2 19.6 32S23.8 51.7 32 58.8"/>
  <circle cx="32" cy="32" r="27" fill="none" stroke="#EAF6FF" stroke-width="2"/>
</svg>
